<svg width="191" height="273" viewBox="0 0 191 273" fill="none" xmlns="http://www.w3.org/2000/svg">
<path d="M166.8 89C162.8 83.8 157.733 79.8 151.6 77C145.467 74.2 139.133 72.8 132.6 72.8C124.6 72.8 117.333 74.3333 110.8 77.4C104.4 80.3333 98.8667 84.4 94.2 89.6C89.6667 94.8 86.1333 100.933 83.6 108C81.0667 114.933 79.8 122.4 79.8 130.4C79.8 137.867 81 144.933 83.4 151.6C85.8 158.267 89.2667 164.133 93.8 169.2C98.3333 174.267 103.867 178.267 110.4 181.2C116.933 184.133 124.333 185.6 132.6 185.6C140.733 185.6 147.867 183.933 154 180.6C160.133 177.267 165.333 172.6 169.6 166.6L185.8 178.8C184.733 180.267 182.867 182.4 180.2 185.2C177.533 187.867 174 190.6 169.6 193.4C165.2 196.067 159.867 198.4 153.6 200.4C147.467 202.533 140.333 203.6 132.2 203.6C121 203.6 110.867 201.467 101.8 197.2C92.8667 192.933 85.2 187.333 78.8 180.4C72.5333 173.467 67.7333 165.667 64.4 157C61.0667 148.2 59.4 139.333 59.4 130.4C59.4 119.467 61.2 109.4 64.8 100.2C68.4 90.8667 73.4 82.8667 79.8 76.2C86.3333 69.4 94.1333 64.1333 103.2 60.4C112.267 56.6667 122.267 54.8 133.2 54.8C142.533 54.8 151.667 56.6 160.6 60.2C169.667 63.8 177.067 69.3333 182.8 76.8L166.8 89Z" fill="black"/>
<path d="M24.72 96.02C17.22 96.02 11.58 89.96 11.58 82.28C11.58 74.6 17.22 68.54 24.72 68.54C32.22 68.54 37.86 74.6 37.86 82.28C37.86 89.96 32.22 96.02 24.72 96.02ZM24.72 104.66C37.62 104.66 47.4 94.94 47.4 82.28C47.4 69.62 37.62 59.9 24.72 59.9C11.82 59.9 2.04 69.62 2.04 82.28C2.04 94.94 11.82 104.66 24.72 104.66Z" fill="black"/>
</svg>
