<svg width="252" height="263" viewBox="0 0 252 263" fill="none" xmlns="http://www.w3.org/2000/svg">
<g filter="url(#filter0_f_7_5153)">
<path d="M126.891 41.2209L126.891 237.324" stroke="#42A0F0" stroke-width="10" stroke-linecap="round"/>
<path d="M126.499 89.1579L160.272 54.2949" stroke="#42A0F0" stroke-width="10" stroke-linecap="round"/>
<path d="M126.499 89.1579L91.6357 54.2949" stroke="#42A0F0" stroke-width="10" stroke-linecap="round"/>
<path d="M126.499 193.746L160.272 228.609" stroke="#42A0F0" stroke-width="10" stroke-linecap="round"/>
<path d="M126.499 193.746L91.6357 228.609" stroke="#42A0F0" stroke-width="10" stroke-linecap="round"/>
<path d="M211.337 91.0576L41.5067 189.109" stroke="#42A0F0" stroke-width="10" stroke-linecap="round"/>
<path d="M169.627 114.687L216.705 126.503" stroke="#42A0F0" stroke-width="10" stroke-linecap="round"/>
<path d="M169.626 114.687L182.387 67.063" stroke="#42A0F0" stroke-width="10" stroke-linecap="round"/>
<path d="M79.0508 166.981L65.745 213.66" stroke="#42A0F0" stroke-width="10" stroke-linecap="round"/>
<path d="M79.0506 166.981L31.4269 154.22" stroke="#42A0F0" stroke-width="10" stroke-linecap="round"/>
<path d="M210.401 189.11L40.5707 91.0581" stroke="#42A0F0" stroke-width="10" stroke-linecap="round"/>
<path d="M169.082 164.801L182.388 211.481" stroke="#42A0F0" stroke-width="10" stroke-linecap="round"/>
<path d="M169.082 164.802L216.706 152.041" stroke="#42A0F0" stroke-width="10" stroke-linecap="round"/>
<path d="M78.5063 112.508L31.4276 124.324" stroke="#42A0F0" stroke-width="10" stroke-linecap="round"/>
<path d="M78.5065 112.508L65.7457 64.8839" stroke="#42A0F0" stroke-width="10" stroke-linecap="round"/>
</g>
<g filter="url(#filter1_f_7_5153)">
<path d="M54.8838 2V15.394" stroke="#42A0F0" stroke-linecap="round"/>
<path d="M54.5938 5.26796L56.7727 4.17896" stroke="#42A0F0" stroke-linecap="round"/>
<path d="M54.5937 5.26796L51.3257 4.17896" stroke="#42A0F0" stroke-linecap="round"/>
<path d="M54.5938 12.895L56.7727 13.984" stroke="#42A0F0" stroke-linecap="round"/>
<path d="M54.5937 12.895L51.3257 13.984" stroke="#42A0F0" stroke-linecap="round"/>
<path d="M60.6519 5.40442L49.0523 12.1014" stroke="#42A0F0" stroke-linecap="round"/>
<path d="M57.8027 7.01801L61.0182 7.82544" stroke="#42A0F0" stroke-linecap="round"/>
<path d="M57.8028 7.01801L58.6743 3.7655" stroke="#42A0F0" stroke-linecap="round"/>
<path d="M51.6157 10.59L50.7072 13.7784" stroke="#42A0F0" stroke-linecap="round"/>
<path d="M51.6158 10.59L48.3633 9.71845" stroke="#42A0F0" stroke-linecap="round"/>
<path d="M60.5874 12.1014L48.9879 5.40444" stroke="#42A0F0" stroke-linecap="round"/>
<path d="M57.7656 10.441L58.6741 13.6294" stroke="#42A0F0" stroke-linecap="round"/>
<path d="M57.7656 10.441L61.0181 9.56946" stroke="#42A0F0" stroke-linecap="round"/>
<path d="M51.5786 6.86902L48.3631 7.67644" stroke="#42A0F0" stroke-linecap="round"/>
<path d="M51.5785 6.86901L50.707 3.61651" stroke="#42A0F0" stroke-linecap="round"/>
</g>
<g filter="url(#filter2_f_7_5153)">
<path d="M239.669 31.655V54.615" stroke="#42A0F0" stroke-linecap="round"/>
<path d="M238.712 36.863L243.07 35.774" stroke="#42A0F0" stroke-linecap="round"/>
<path d="M238.713 36.863L233.266 35.774" stroke="#42A0F0" stroke-linecap="round"/>
<path d="M238.712 49.937L243.07 52.116" stroke="#42A0F0" stroke-linecap="round"/>
<path d="M238.713 49.937L233.266 52.116" stroke="#42A0F0" stroke-linecap="round"/>
<path d="M249.556 37.49L229.672 48.97" stroke="#42A0F0" stroke-linecap="round"/>
<path d="M244.672 40.2567L250.185 41.64" stroke="#42A0F0" stroke-linecap="round"/>
<path d="M244.672 40.2567L246.167 34.6805" stroke="#42A0F0" stroke-linecap="round"/>
<path d="M234.068 46.3792L232.51 51.8444" stroke="#42A0F0" stroke-linecap="round"/>
<path d="M234.068 46.3791L228.492 44.885" stroke="#42A0F0" stroke-linecap="round"/>
<path d="M249.446 48.9709L229.562 37.4909" stroke="#42A0F0" stroke-linecap="round"/>
<path d="M244.608 46.1246L246.167 51.5899" stroke="#42A0F0" stroke-linecap="round"/>
<path d="M244.608 46.1246L250.185 44.6305" stroke="#42A0F0" stroke-linecap="round"/>
<path d="M234.004 40.0022L228.492 41.3855" stroke="#42A0F0" stroke-linecap="round"/>
<path d="M234.004 40.0022L232.51 34.426" stroke="#42A0F0" stroke-linecap="round"/>
</g>
<g filter="url(#filter3_f_7_5153)">
<path d="M225.526 200.522V219.372" stroke="#42A0F0" stroke-linecap="round"/>
<path d="M224.549 204.64L227.817 203.551" stroke="#42A0F0" stroke-linecap="round"/>
<path d="M224.549 204.64L220.191 203.551" stroke="#42A0F0" stroke-linecap="round"/>
<path d="M224.549 215.535L227.817 217.714" stroke="#42A0F0" stroke-linecap="round"/>
<path d="M224.549 215.535L220.191 217.714" stroke="#42A0F0" stroke-linecap="round"/>
<path d="M233.644 205.313L217.319 214.738" stroke="#42A0F0" stroke-linecap="round"/>
<path d="M229.635 207.584L234.16 208.72" stroke="#42A0F0" stroke-linecap="round"/>
<path d="M229.635 207.584L230.861 203.006" stroke="#42A0F0" stroke-linecap="round"/>
<path d="M220.928 212.611L219.649 217.097" stroke="#42A0F0" stroke-linecap="round"/>
<path d="M220.928 212.611L216.351 211.384" stroke="#42A0F0" stroke-linecap="round"/>
<path d="M233.554 214.738L217.23 205.313" stroke="#42A0F0" stroke-linecap="round"/>
<path d="M229.583 212.401L230.862 216.888" stroke="#42A0F0" stroke-linecap="round"/>
<path d="M229.583 212.401L234.16 211.175" stroke="#42A0F0" stroke-linecap="round"/>
<path d="M220.876 207.375L216.351 208.51" stroke="#42A0F0" stroke-linecap="round"/>
<path d="M220.876 207.374L219.65 202.797" stroke="#42A0F0" stroke-linecap="round"/>
</g>
<g filter="url(#filter4_f_7_5153)">
<path d="M70.7324 244.1V260.705" stroke="#42A0F0" stroke-linecap="round"/>
<path d="M69.8457 248.218L73.1137 247.129" stroke="#42A0F0" stroke-linecap="round"/>
<path d="M69.8456 248.218L66.5776 247.129" stroke="#42A0F0" stroke-linecap="round"/>
<path d="M69.8457 256.934L73.1137 259.113" stroke="#42A0F0" stroke-linecap="round"/>
<path d="M69.8456 256.934L66.5776 259.113" stroke="#42A0F0" stroke-linecap="round"/>
<path d="M77.8833 248.32L63.5029 256.623" stroke="#42A0F0" stroke-linecap="round"/>
<path d="M74.3517 250.321L78.3382 251.322" stroke="#42A0F0" stroke-linecap="round"/>
<path d="M74.3516 250.321L75.4321 246.289" stroke="#42A0F0" stroke-linecap="round"/>
<path d="M66.6821 254.749L65.5556 258.702" stroke="#42A0F0" stroke-linecap="round"/>
<path d="M66.6821 254.749L62.6495 253.669" stroke="#42A0F0" stroke-linecap="round"/>
<path d="M77.8037 256.622L63.4234 248.32" stroke="#42A0F0" stroke-linecap="round"/>
<path d="M74.3053 254.564L75.4318 258.517" stroke="#42A0F0" stroke-linecap="round"/>
<path d="M74.3054 254.564L78.3379 253.484" stroke="#42A0F0" stroke-linecap="round"/>
<path d="M66.6357 250.136L62.6492 251.137" stroke="#42A0F0" stroke-linecap="round"/>
<path d="M66.6358 250.136L65.5553 246.104" stroke="#42A0F0" stroke-linecap="round"/>
</g>
<g filter="url(#filter5_f_7_5153)">
<path d="M8.07568 174.374V187.842" stroke="#42A0F0" stroke-linecap="round"/>
<path d="M7.74658 177.403L9.92558 176.314" stroke="#42A0F0" stroke-linecap="round"/>
<path d="M7.74652 177.403L4.47852 176.314" stroke="#42A0F0" stroke-linecap="round"/>
<path d="M7.74658 185.029L9.92558 186.118" stroke="#42A0F0" stroke-linecap="round"/>
<path d="M7.74652 185.029L4.47852 186.118" stroke="#42A0F0" stroke-linecap="round"/>
<path d="M13.874 177.797L2.21039 184.531" stroke="#42A0F0" stroke-linecap="round"/>
<path d="M11.0093 179.419L14.242 180.23" stroke="#42A0F0" stroke-linecap="round"/>
<path d="M11.0095 179.419L11.8857 176.149" stroke="#42A0F0" stroke-linecap="round"/>
<path d="M4.78857 183.011L3.87481 186.216" stroke="#42A0F0" stroke-linecap="round"/>
<path d="M4.7888 183.011L1.51853 182.135" stroke="#42A0F0" stroke-linecap="round"/>
<path d="M13.8101 184.531L2.14643 177.797" stroke="#42A0F0" stroke-linecap="round"/>
<path d="M10.9726 182.861L11.8864 186.067" stroke="#42A0F0" stroke-linecap="round"/>
<path d="M10.9724 182.861L14.2427 181.985" stroke="#42A0F0" stroke-linecap="round"/>
<path d="M4.75195 179.27L1.51919 180.081" stroke="#42A0F0" stroke-linecap="round"/>
<path d="M4.75173 179.27L3.87547 176" stroke="#42A0F0" stroke-linecap="round"/>
</g>
<defs>
<filter id="filter0_f_7_5153" x="22.4258" y="32.2209" width="203.282" height="214.103" filterUnits="userSpaceOnUse" color-interpolation-filters="sRGB">
<feFlood flood-opacity="0" result="BackgroundImageFix"/>
<feBlend mode="normal" in="SourceGraphic" in2="BackgroundImageFix" result="shape"/>
<feGaussianBlur stdDeviation="2" result="effect1_foregroundBlur_7_5153"/>
</filter>
<filter id="filter1_f_7_5153" x="46.8628" y="0.5" width="15.6558" height="16.394" filterUnits="userSpaceOnUse" color-interpolation-filters="sRGB">
<feFlood flood-opacity="0" result="BackgroundImageFix"/>
<feBlend mode="normal" in="SourceGraphic" in2="BackgroundImageFix" result="shape"/>
<feGaussianBlur stdDeviation="0.5" result="effect1_foregroundBlur_7_5153"/>
</filter>
<filter id="filter2_f_7_5153" x="226.992" y="30.155" width="24.6929" height="25.96" filterUnits="userSpaceOnUse" color-interpolation-filters="sRGB">
<feFlood flood-opacity="0" result="BackgroundImageFix"/>
<feBlend mode="normal" in="SourceGraphic" in2="BackgroundImageFix" result="shape"/>
<feGaussianBlur stdDeviation="0.5" result="effect1_foregroundBlur_7_5153"/>
</filter>
<filter id="filter3_f_7_5153" x="214.851" y="199.022" width="20.8096" height="21.8501" filterUnits="userSpaceOnUse" color-interpolation-filters="sRGB">
<feFlood flood-opacity="0" result="BackgroundImageFix"/>
<feBlend mode="normal" in="SourceGraphic" in2="BackgroundImageFix" result="shape"/>
<feGaussianBlur stdDeviation="0.5" result="effect1_foregroundBlur_7_5153"/>
</filter>
<filter id="filter4_f_7_5153" x="61.1489" y="242.6" width="18.6895" height="19.605" filterUnits="userSpaceOnUse" color-interpolation-filters="sRGB">
<feFlood flood-opacity="0" result="BackgroundImageFix"/>
<feBlend mode="normal" in="SourceGraphic" in2="BackgroundImageFix" result="shape"/>
<feGaussianBlur stdDeviation="0.5" result="effect1_foregroundBlur_7_5153"/>
</filter>
<filter id="filter5_f_7_5153" x="0.0185547" y="172.874" width="15.7241" height="16.468" filterUnits="userSpaceOnUse" color-interpolation-filters="sRGB">
<feFlood flood-opacity="0" result="BackgroundImageFix"/>
<feBlend mode="normal" in="SourceGraphic" in2="BackgroundImageFix" result="shape"/>
<feGaussianBlur stdDeviation="0.5" result="effect1_foregroundBlur_7_5153"/>
</filter>
</defs>
</svg>
